<?xml version="1.0" encoding="UTF-8"?><svg id="Layer_2" xmlns="http://www.w3.org/2000/svg" viewBox="0 0 149.06954 28.1996"><defs><style>.cls-1{fill:#8fbdff;}.cls-2{fill:#fff;}.cls-3{fill:#000051;}.cls-4{fill:#5a5af2;}</style></defs><path class="cls-2" d="M27.9631,22.13612V5.74843h5.73633c1.1543,0,2.15332.18359,2.99609.5498.84375.36719,1.50195.90527,1.97852,1.61523.47656.71094.71387,1.58105.71387,2.61035,0,1.06152-.24121,1.94727-.72559,2.65723-.48438.71094-1.15137,1.24512-2.00195,1.60449-.85059.3584-1.83789.53809-2.96094.53809h-3.25391v6.8125h-2.48242ZM30.44552,13.19276h3.20703c1.16992,0,1.99805-.2373,2.48145-.71387.4834-.47559.72559-1.12695.72559-1.95508,0-.82715-.24219-1.47852-.72559-1.9541-.4834-.47656-1.31152-.71484-2.48145-.71484h-3.20703v5.33789Z"/><path class="cls-2" d="M45.87325,22.41737c-1.15527,0-2.16992-.25781-3.04297-.77246-.875-.51562-1.55762-1.2334-2.04883-2.1543-.49219-.9209-.73828-1.97363-.73828-3.16016,0-1.2334.24609-2.30176.73828-3.20801.49121-.9043,1.17383-1.61133,2.04883-2.11816.87305-.50684,1.89551-.76074,3.06641-.76074,1.12305,0,2.10352.24512,2.9375.7373.83594.49121,1.49414,1.16309,1.97852,2.01367s.72656,1.81445.72656,2.89062c0,.20312-.00391.38672-.01172.55078-.00879.16406-.02734.35449-.05859.57324h-8.91992c.04688.65527.21094,1.2334.49121,1.73242.28125.5.65918.89355,1.13574,1.18262.47559.28906,1.02539.43262,1.65039.43262.68652,0,1.26367-.15234,1.73242-.45605.46875-.30469.82715-.7373,1.07715-1.2998h2.5752c-.20312.70215-.54297,1.34277-1.01855,1.91992-.47559.57812-1.07715,1.03809-1.80273,1.38184-.72559.34277-1.56543.51465-2.5166.51465ZM42.57247,15.22987h6.4375c-.03125-.90527-.35547-1.61914-.9707-2.14258-.61719-.52246-1.35547-.78418-2.21289-.78418-.78125,0-1.49023.24219-2.13086.72656-.63965.4834-1.01367,1.2168-1.12305,2.2002Z"/><path class="cls-2" d="M53.3879,22.13612v-11.6123h2.3877l.07031,1.9668c.39062-.70215.9248-1.25195,1.60352-1.65039.67969-.39844,1.4707-.59668,2.37695-.59668v2.59863h-.65625c-1.12305,0-1.95508.28516-2.49219.85449-.53906.56934-.80859,1.43945-.80859,2.61035v5.8291h-2.48145Z"/><path class="cls-2" d="M65.98263,22.41737c-.88867,0-1.70898-.16016-2.45801-.48047-.74902-.31934-1.3584-.77539-1.82617-1.36914-.46777-.59277-.74121-1.28809-.81934-2.08398h2.50488c.10938.5625.39844,1.02246.86621,1.38184.46875.35938,1.0459.53809,1.73242.53809.64062,0,1.15039-.13672,1.5332-.40918.38281-.27344.57422-.63574.57422-1.08887,0-.38965-.125-.69434-.375-.91309s-.57715-.38672-.98242-.50293c-.40625-.11719-.84375-.23047-1.31152-.33984-.71777-.15625-1.39355-.35938-2.02539-.6084-.63184-.25-1.14355-.59766-1.5332-1.04199-.38965-.44531-.58496-1.02637-.58496-1.74414,0-.7334.19531-1.36133.58496-1.88477.38965-.52246.9209-.9248,1.5918-1.20605.6709-.28027,1.42871-.4209,2.27051-.4209,1.26465,0,2.31836.31934,3.16113.95996.84277.63965,1.31152,1.56055,1.40527,2.7627h-2.38867c-.0625-.54688-.29297-.96777-.69043-1.26465-.39746-.2959-.91699-.44531-1.55762-.44531-.56055,0-1.02148.11426-1.38086.33984-.35938.22656-.53809.57324-.53809,1.04199,0,.3125.12402.56934.37402.77246s.57422.375.97266.51465c.39746.14062.81445.25781,1.25195.35156.7959.1875,1.50586.40625,2.13086.65527.62305.25,1.12305.59766,1.49805,1.04199.375.44531.56152,1.06543.56152,1.86133.01562.7334-.1748,1.36914-.57324,1.9082-.39844.53809-.94141.95215-1.62695,1.24023-.6875.28906-1.46777.43359-2.3418.43359Z"/><path class="cls-2" d="M72.56173,27.28651V10.52382h2.3877l.09375,1.75586c.40625-.59277.95215-1.08008,1.63867-1.46289.6875-.38184,1.49805-.57324,2.43555-.57324,1.1543,0,2.14551.26855,2.97266.80762.82715.53809,1.46289,1.26758,1.9082,2.18848.44531.92188.66797,1.94336.66797,3.06738,0,1.13965-.22656,2.17383-.67969,3.10156-.45312.92871-1.09277,1.66211-1.91992,2.20117-.82715.53809-1.81055.80762-2.94922.80762-.96875,0-1.79883-.19922-2.49414-.59668-.69434-.39844-1.2207-.87793-1.58008-1.44043v6.90625h-2.48145ZM78.60177,20.23964c.70312,0,1.31836-.1709,1.84961-.51465.53027-.34277.94824-.81152,1.25195-1.4043.30469-.59375.45703-1.26465.45703-2.01367,0-.78027-.15234-1.46289-.45703-2.04883-.30371-.58496-.72461-1.03809-1.26367-1.35742-.53906-.32031-1.15137-.48047-1.83789-.48047-.6875,0-1.29492.16406-1.82617.49219-.53125.32715-.94727.78809-1.25195,1.38086-.30469.59375-.45703,1.27246-.45703,2.03711,0,.71777.14844,1.37793.44531,1.97852.2959.60059.70508,1.07324,1.22852,1.41602.52344.34375,1.14355.51465,1.86133.51465Z"/><path class="cls-2" d="M92.06271,22.41737c-1.1543,0-2.16992-.25781-3.04297-.77246-.875-.51562-1.55664-1.2334-2.04883-2.1543s-.7373-1.97363-.7373-3.16016c0-1.2334.24512-2.30176.7373-3.20801.49219-.9043,1.17383-1.61133,2.04883-2.11816.87305-.50684,1.89648-.76074,3.06641-.76074,1.12402,0,2.10352.24512,2.93848.7373.83496.49121,1.49414,1.16309,1.97852,2.01367.4834.85059.72559,1.81445.72559,2.89062,0,.20312-.00391.38672-.01172.55078s-.02734.35449-.05859.57324h-8.91992c.04688.65527.21094,1.2334.49219,1.73242.28125.5.6582.89355,1.13477,1.18262s1.02637.43262,1.65039.43262c.6875,0,1.26465-.15234,1.73242-.45605.46875-.30469.82812-.7373,1.07812-1.2998h2.57422c-.20312.70215-.54199,1.34277-1.01758,1.91992-.47656.57812-1.07812,1.03809-1.80273,1.38184-.72656.34277-1.56543.51465-2.51758.51465ZM88.76193,15.22987h6.43848c-.03223-.90527-.35547-1.61914-.97168-2.14258-.61719-.52246-1.35449-.78418-2.21289-.78418-.78027,0-1.49023.24219-2.12988.72656-.63965.4834-1.01465,1.2168-1.12402,2.2002Z"/><path class="cls-2" d="M104.9631,22.41737c-1.12402,0-2.12695-.25781-3.00781-.77246-.88281-.51562-1.57324-1.22949-2.07227-2.14258-.5-.91309-.75-1.96973-.75-3.17188,0-1.18652.24609-2.23633.73828-3.14941.49121-.91309,1.17383-1.63086,2.04883-2.15332.87305-.52246,1.8877-.78418,3.04297-.78418,1.38867,0,2.56348.35449,3.52344,1.06543.95996.70996,1.58789,1.71289,1.88477,3.00781h-2.59961c-.15527-.59277-.4834-1.06836-.98242-1.42773-.5-.35938-1.11621-.53906-1.84961-.53906-.73438,0-1.33789.18359-1.81445.55078-.47656.36621-.83496.85449-1.07715,1.46289s-.3623,1.26465-.3623,1.9668c0,.74902.12891,1.42383.38574,2.02539.25781.60059.62793,1.07617,1.1123,1.42773.4834.35156,1.06836.52637,1.75586.52637.71777,0,1.32617-.16699,1.82617-.50293.49902-.33594.83398-.82324,1.00586-1.46289h2.59961c-.17188.82715-.51172,1.54883-1.01855,2.16504-.50684.61719-1.13184,1.08887-1.87305,1.41602-.74121.32812-1.58008.49219-2.5166.49219Z"/><path class="cls-2" d="M116.76193,22.13612c-1.1543,0-2.04102-.28027-2.65625-.84277-.61719-.56152-.92578-1.48242-.92578-2.7627v-5.92285h-1.75586v-2.08398h1.75586v-2.80859h2.48242v2.80859h2.94922v2.08398h-2.94922v5.92285c0,.59375.13184.99121.39746,1.19434.26465.20312.67871.30469,1.24121.30469h1.31055v2.10645h-1.84961Z"/><path class="cls-2" d="M122.00607,8.48768c-.46875,0-.86328-.16016-1.18262-.48047-.31934-.31934-.47949-.70605-.47949-1.1582,0-.46875.16016-.8584.47949-1.1709s.71387-.46875,1.18262-.46875.8623.15625,1.18164.46875c.32031.3125.48047.70215.48047,1.1709,0,.45215-.16016.83887-.48047,1.1582-.31934.32031-.71289.48047-1.18164.48047ZM120.76583,22.13612v-11.6123h2.48047v11.6123h-2.48047Z"/><path class="cls-2" d="M129.12325,22.13612l-4.37891-11.6123h2.64648l3.23047,9.31836,3.23047-9.31836h2.59961l-4.37891,11.6123h-2.94922Z"/><path class="cls-2" d="M142.6545,22.41737c-1.1543,0-2.16992-.25781-3.04297-.77246-.875-.51562-1.55664-1.2334-2.04883-2.1543s-.7373-1.97363-.7373-3.16016c0-1.2334.24512-2.30176.7373-3.20801.49219-.9043,1.17383-1.61133,2.04883-2.11816.87305-.50684,1.89648-.76074,3.06641-.76074,1.12402,0,2.10352.24512,2.93848.7373.83496.49121,1.49414,1.16309,1.97852,2.01367.4834.85059.72559,1.81445.72559,2.89062,0,.20312-.00391.38672-.01172.55078s-.02734.35449-.05859.57324h-8.91992c.04688.65527.21094,1.2334.49219,1.73242.28125.5.6582.89355,1.13477,1.18262s1.02637.43262,1.65039.43262c.6875,0,1.26465-.15234,1.73242-.45605.46875-.30469.82812-.7373,1.07812-1.2998h2.57422c-.20312.70215-.54199,1.34277-1.01758,1.91992-.47656.57812-1.07812,1.03809-1.80273,1.38184-.72656.34277-1.56543.51465-2.51758.51465ZM139.35372,15.22987h6.43848c-.03223-.90527-.35547-1.61914-.97168-2.14258-.61719-.52246-1.35449-.78418-2.21289-.78418-.78027,0-1.49023.24219-2.12988.72656-.63965.4834-1.01465,1.2168-1.12402,2.2002Z"/><path class="cls-4" d="M16.99881,4.06913C15.91344,2.46303,13.81837.46154,10.00126.04789c-.75478-.08176-5.37728-.03949-8.13902-.01409-.5583.00504-1.02979.00939-1.36091.01165-.27641.00191-.50133.22875-.50133.50568v22.62101c0,.27884.22683.50568.50559.50568h2.80306c.07376,0,.13359-.05984.13359-.13359V3.40289c0-.13046.10585-.23744.23588-.23831.33164-.00226.804-.00661,1.36326-.01165,2.57466-.02401,7.36711-.06802,8.10614.01252,1.34578.14577,2.58318.51472,3.67786,1.09642.0541.02888.12116.01687.16204-.02853.04105-.04575.04575-.11342.01139-.16421Z"/><path class="cls-1" d="M16.9508,4.02599c-.05419-.02888-.12107-.01705-.16204.02853-.04105.04575-.04575.11342-.01139.16421,1.9927,2.94883,2.143,6.95545.37391,9.97004-1.66741,2.84133-4.65738,4.23033-8.41926,3.90991-.13977-.01218-.27876.03601-.38208.13081-.10402.09567-.16369.23136-.16369.3726v4.57006c0,.13151-.10698.23849-.2384.23849H3.30865c-.07376,0-.13359.05984-.13359.13359v2.47968c0,.27884.22683.50568.50559.50568h7.44217c.27884,0,.50568-.22683.50568-.50568v-4.57006c0-.06767.02748-.13012.07732-.17587.04905-.04505.11272-.06575.17865-.06123,5.57732.47524,8.58329-2.81262,9.53655-6.04708,1.11051-3.76727-.06845-8.80473-4.47021-11.14369Z"/><path class="cls-3" d="M18.32403,7.04374c-.26719-1.05628-.72319-2.06448-1.32526-2.9747l-.01781-.02672-.03029-.01603c-1.27895-.67332-2.69327-1.05984-4.13609-1.14712-1.42858-.04097-2.84646-.02496-4.2697-.0214-.31349.0107-4.601.02672-4.79872.03918-.23513-.02135-.47561.11759-.54508.34736-.01959.05521-.02671.12292-.02671.1728v.93338c.00178.63945-.00178,18.03884,0,19.32672h.13359c.86213,0,3.08158.00178,3.91878,0h.73745c.26541-.00357.4934-.24049.48985-.50589v-4.43533c-.00892-.16034.00356-.30996.16566-.3616.0855-.02672.45422.01603.55575.01424.23868.01959.57178.02137.81404.01246,6.15605-.01068,9.78448-5.59494,8.33453-11.35734ZM17.22499,13.23898c-.69825,3.56253-5.09086,5.09622-8.03885,4.86643-.14606-.0107-.26541-.01961-.42572-.0374-.3331-.03742-.63235.19413-.63591.52903v.13894s.00535,3.12254-1.04204,3.34876c-2.66656.58069-2.98005-3.85109-3.3185-7.11795-.37051-3.5732-.22978-7.81438-.25294-11.41609v-.13359c-.00713-.10511.07124-.18348.17099-.18526l.06769-.00178s.399-.00892.5326-.00535c2.96759.08728,6.54259.23157,9.04883,1.63162,3.36658,1.8169,4.59209,4.82011,3.89384,8.38264Z"/><path class="cls-2" d="M17.22499,13.23898c-.69825,3.56253-5.09086,5.09622-8.03885,4.86643-.14606-.0107-.26541-.01961-.42572-.0374-.3331-.03742-.63235.19413-.63591.52903v.13894s.00535,3.12254-1.04204,3.34876c-2.66656.58069-2.98005-3.85109-3.3185-7.11795-.37051-3.5732-.22978-7.81438-.25294-11.41609v-.13359c-.00713-.10511.07124-.18348.17099-.18526l.06769-.00178s.399-.00892.5326-.00535c2.96759.08728,6.54259.23157,9.04883,1.63162,3.36658,1.8169,4.59209,4.82011,3.89384,8.38264Z"/></svg>