<?xml version="1.0" encoding="UTF-8"?><svg id="Layer_2" xmlns="http://www.w3.org/2000/svg" viewBox="0 0 77.61392 94.39802"><defs><style>.cls-1{fill:#8fbdff;}.cls-2{fill:#fff;}.cls-3{fill:#000051;}.cls-4{fill:#5a5af2;}</style></defs><path class="cls-4" d="M60.48547,14.47884C56.62348,8.764,49.16876,1.64227,35.58666.17039,32.901-.12052,16.45313.02989,6.62625.12026c-1.98654.01795-3.66423.03342-4.84241.04147-.98352.00681-1.78384.81393-1.78384,1.79931v80.49049c0,.99219.80712,1.79931,1.799,1.79931h9.97388c.26244,0,.47536-.21292.47536-.47536V12.10823c0-.46422.37664-.84488.83931-.84797,1.18004-.00805,2.86082-.02352,4.85077-.04147,9.16119-.08542,26.21378-.24201,28.84343.04456,4.78857.51869,9.19152,1.8315,13.08662,3.90129.1925.10275.4311.06004.57656-.10151.14607-.16279.16279-.40356.04054-.5843Z"/><path class="cls-1" d="M60.31463,14.32533c-.19281-.10275-.43079-.06066-.57656.10151-.14607.16279-.16279.40356-.04054.5843,7.09047,10.49257,7.62525,24.74902,1.33045,35.47556-5.93302,10.11005-16.57197,15.05243-29.95755,13.91231-.49733-.04333-.99188.12812-1.35954.46546-.37014.34043-.58244.82321-.58244,1.32581v16.26125c0,.46793-.38066.84859-.84828.84859H11.77288c-.26244,0-.47536.21292-.47536.47536v8.82324c0,.99219.80712,1.79931,1.799,1.79931h26.48086c.99219,0,1.79931-.80712,1.79931-1.79931v-16.26125c0-.24077.0978-.46298.27513-.62577.17455-.16031.40108-.23397.63567-.21787,19.84533,1.69099,30.54123-10.00793,33.93311-21.51682,3.95143-13.40477-.24356-31.32916-15.90597-39.65166Z"/><path class="cls-3" d="M65.20088,25.06317c-.95072-3.75847-2.57328-7.34587-4.71557-10.58464l-.06337-.09509-.10778-.05702c-4.55077-2.39583-9.58324-3.77115-14.71711-4.08172-5.08319-.14576-10.12831-.08882-15.19251-.07613-1.11548.03807-16.37135.09509-17.07487.13942-.83664-.07598-1.69231.41842-1.9395,1.23598-.06971.19644-.09505.43737-.09505.61486v3.32117c.00634,2.27529-.00634,64.18614,0,68.76867h.47536c3.06763,0,10.96495.00634,13.94388,0h2.62399c.94437-.01269,1.75563-.85571,1.74298-1.80008v-15.78187c-.03172-.57052.01265-1.10291.58944-1.28666.30422-.09509,1.61621.05702,1.97749.05068.84929.06971,2.03451.07605,2.89653.04433,21.90456-.03799,34.81532-19.908,29.65608-40.4119ZM61.29026,47.10719c-2.48453,12.67625-18.11438,18.13345-28.60397,17.3158-.51973-.03807-.94437-.06979-1.51482-.13308-1.18523-.13315-2.25003.69076-2.26272,1.8824v.49439s.01903,11.11068-3.70779,11.91563c-9.48819,2.06624-10.60367-13.70303-11.80793-25.3272-1.31834-12.71424-.8176-27.80528-.9-40.62095v-.47536c-.02538-.37401.2535-.65285.60844-.65919l.24085-.00634s1.41973-.03172,1.89509-.01903c10.55934.31056,23.27996.82399,32.19771,5.80567,11.97904,6.46493,16.33967,17.15101,13.85513,29.82726Z"/><path class="cls-2" d="M61.29026,47.10719c-2.48453,12.67625-18.11438,18.13345-28.60397,17.3158-.51973-.03807-.94437-.06979-1.51482-.13308-1.18523-.13315-2.25003.69076-2.26272,1.8824v.49439s.01903,11.11068-3.70779,11.91563c-9.48819,2.06624-10.60367-13.70303-11.80793-25.3272-1.31834-12.71424-.8176-27.80528-.9-40.62095v-.47536c-.02538-.37401.2535-.65285.60844-.65919l.24085-.00634s1.41973-.03172,1.89509-.01903c10.55934.31056,23.27996.82399,32.19771,5.80567,11.97904,6.46493,16.33967,17.15101,13.85513,29.82726Z"/></svg>